<svg xmlns="http://www.w3.org/2000/svg" width="22.975" height="16" viewBox="0 0 22.975 16">
  <path id="Confirm_Task" data-name="Confirm Task" d="M906.331,1163.322a4.1,4.1,0,0,1-.917-.57q-2.9-3.1-5.744-6.254a1.325,1.325,0,0,1,.04-1.876,1.375,1.375,0,0,1,1.912.164q2.292,2.483,4.557,4.99c.259.287.4.278.685.021q6.594-6.047,13.208-12.072a1.291,1.291,0,0,1,1.827-.048,1.333,1.333,0,0,1-.082,1.935c-1.7,1.568-3.408,3.122-5.113,4.681q-4.6,4.21-9.206,8.421a1.414,1.414,0,0,1-1.107.5Z" transform="translate(-899.302 -1147.322)" fill="#ff619e"/>
</svg>
